<?xml version="1.0" encoding="utf-8"?>
<!-- Generator: Adobe Illustrator 22.1.0, SVG Export Plug-In . SVG Version: 6.00 Build 0)  -->
<svg version="1.1" id="Layer_1" xmlns="http://www.w3.org/2000/svg" xmlns:xlink="http://www.w3.org/1999/xlink" x="0px" y="0px"
	 viewBox="0 0 254 83" style="enable-background:new 0 0 254 83;" xml:space="preserve">
<style type="text/css">
	.st0{fill:#2E3034;}
	.st1{fill:#488EFF;}
</style>
<g id="_x30_b742467-27ea-ae3f-7cfa-ca0e10ac04e7" transform="matrix(2.2,0,0,2.2,103.8876416683197,132.35599603652955)">
	<path class="st0" d="M-6.1-45.4v-1H-13v9.3h6.8v-1h-5.8v-3.1h5.2v-1h-5.2v-3.1H-6.1z M-3.6-47h-1.1v9.8h1.1V-47z M1.3-38
		c-1.4,0-2.3-1-2.5-2.2h5.9v-0.4c0-2-1.3-3.6-3.5-3.6s-3.5,1.6-3.5,3.6S-0.8-37,1.3-37C3-37,4-37.9,4.5-39.2H3.3
		C3-38.5,2.3-38,1.3-38z M1.2-43.3c1.3,0,2.2,0.9,2.4,2.1h-4.8C-0.9-42.4-0.1-43.3,1.2-43.3z M11.5-44.2v1.1
		c-0.5-0.8-1.3-1.2-2.5-1.2c-2,0-3.4,1.6-3.4,3.6c0,2,1.3,3.6,3.4,3.6c1.2,0,2-0.5,2.5-1.3v1c0,1.4-0.7,2.2-2.3,2.2
		c-1.1,0-1.8-0.4-2-1.1H5.9c0.4,1.2,1.5,2,3.3,2c2.1,0,3.3-1.1,3.3-3.1v-6.8H11.5z M9.1-38.1c-1.6,0-2.5-1.2-2.5-2.6
		c0-1.4,0.9-2.6,2.5-2.6c1.5,0,2.4,1.2,2.4,2.6C11.5-39.3,10.6-38.1,9.1-38.1z M17.3-44.3c-2,0-3.4,1.6-3.4,3.6s1.3,3.6,3.4,3.6
		c1.2,0,2-0.5,2.5-1.2v1.1h1v-7h-1v1.1C19.3-43.8,18.4-44.3,17.3-44.3z M17.4-38c-1.6,0-2.5-1.2-2.5-2.7c0-1.4,0.9-2.7,2.5-2.7
		c1.6,0,2.4,1.2,2.4,2.7C19.8-39.2,19-38,17.4-38z M22.7-44.2v7h1v-4c0-1.3,1-2.1,2.1-2.1c1.2,0,2,0.8,2,2.1v4h1v-4.1
		c0-2-1.3-3-2.8-3c-1.1,0-1.8,0.5-2.3,1.2v-1.1H22.7z M32.2-37.2v-6.1h1.6v-0.9h-1.6v-2.5h-1.1v2.5h-1.4v0.9h1.4v6.1H32.2z
		 M39.3-46.5c-2.8,0-4.7,2.1-4.7,4.8c0,2.6,1.9,4.7,4.7,4.7s4.7-2.1,4.7-4.7C44-44.4,42.1-46.5,39.3-46.5z M39.3-38.1
		c-2.3,0-3.7-1.6-3.7-3.7c0-2.1,1.4-3.7,3.7-3.7s3.7,1.6,3.7,3.7C43-39.7,41.6-38.1,39.3-38.1z M51.9-46.4h-7.5v1h3.2v8.3h1v-8.3
		h3.2V-46.4z M56.5-46.4h-1.3l-3.9,9.3h1.2l1.1-2.7h4.6l1.1,2.7h1.2L56.5-46.4z M54-40.8l1.9-4.5l1.9,4.5H54z"/>
</g>
<g id="dc688d1f-a066-b7e7-8abc-115fa40e9445" transform="matrix(0.22552057488297111,0,0,0.22552057488297111,34.522743981666856,117.0177449672735)">
	<path class="st1" d="M119-347.6c5.7,0,7.8,6.6,4.5,10.8c-7.2,8.4-14.4,16.5-21.6,24.9c-2.1,2.4-6.6,2.4-9,0
		c-7.2-8.4-14.4-16.5-21.6-24.9c-4.5-5.1,1.2-12.3,6.3-10.8h13.2c-7.2-28.8-29.1-52.5-58.8-59.1c-5.7-1.2-11.4-1.8-17.1-1.8
		c-28.8,0-55.5,15.9-69.6,42c-3.9,7.2-14.7,0.9-10.8-6.3c19.2-34.8,59.4-54.9,98.7-46.2c35.4,7.5,63,36,70.2,71.4
		C103.4-347.6,119-347.6,119-347.6z M-83.2-309.2c-5.7,0-7.8-6.6-4.5-10.8c7.2-8.4,14.4-16.5,21.6-24.9c2.1-2.4,6.6-2.4,9,0
		c7.2,8.4,14.4,16.5,21.6,24.9c4.5,5.1-1.2,12.3-6.3,10.8H-55c7.2,28.8,29.1,52.5,58.8,59.1c5.7,1.2,11.4,1.8,17.1,1.8
		c28.8,0,55.5-15.9,69.6-42c3.9-7.2,14.7-0.9,10.8,6.3c-19.2,35.1-59.4,55.2-98.7,46.5c-35.4-7.8-63.3-36.3-70.5-71.7H-83.2z"/>
</g>
</svg>
